<?xml version="1.0" encoding="UTF-8"?>
<svg version="1.1" xmlns="http://www.w3.org/2000/svg" width="512" height="512">
<path d="M0 0 C3.63108592 0.00315219 7.26134864 -0.02034184 10.89233398 -0.0456543 C24.6976845 -0.08350669 37.90976192 0.68320016 51.46850586 3.31567383 C53.10903931 3.62178589 53.10903931 3.62178589 54.78271484 3.93408203 C57.40016005 4.45167644 59.9959822 5.01912953 62.59350586 5.62817383 C63.50471191 5.83982178 64.41591797 6.05146973 65.35473633 6.26953125 C92.87721505 12.86350842 118.60881565 24.63174489 142.7199707 39.26733398 C144.28102439 40.20326872 145.86747692 41.09653741 147.45678711 41.98364258 C148.1206543 42.42321289 148.78452148 42.8627832 149.46850586 43.31567383 C149.46850586 43.97567383 149.46850586 44.63567383 149.46850586 45.31567383 C150.48557617 45.64051758 150.48557617 45.64051758 151.52319336 45.97192383 C155.36506017 47.72471187 158.33434223 50.16031315 161.59350586 52.81567383 C162.82456042 53.80614808 164.05630641 54.7957637 165.28881836 55.78442383 C166.09730225 56.44087891 166.09730225 56.44087891 166.92211914 57.1105957 C168.38465759 58.25033201 169.9257272 59.28715472 171.46850586 60.31567383 C171.46850586 60.97567383 171.46850586 61.63567383 171.46850586 62.31567383 C172.30381836 62.65598633 172.30381836 62.65598633 173.15600586 63.00317383 C176.10147085 64.67492423 178.1117477 66.89848598 180.46850586 69.31567383 C181.45850586 69.97567383 182.44850586 70.63567383 183.46850586 71.31567383 C183.46850586 71.97567383 183.46850586 72.63567383 183.46850586 73.31567383 C184.03053711 73.54254883 184.59256836 73.76942383 185.17163086 74.00317383 C188.11477446 75.68497017 189.96895318 77.78676493 192.21850586 80.31567383 C193.01772461 81.20254883 193.81694336 82.08942383 194.64038086 83.00317383 C196.46850586 85.31567383 196.46850586 85.31567383 196.46850586 87.31567383 C197.45850586 87.64567383 198.44850586 87.97567383 199.46850586 88.31567383 C200.89135742 89.83105469 200.89135742 89.83105469 202.35913086 91.78051758 C202.90013428 92.49280518 203.4411377 93.20509277 203.99853516 93.93896484 C204.56612549 94.70265381 205.13371582 95.46634277 205.71850586 96.25317383 C206.3047876 97.03297607 206.89106934 97.81277832 207.49511719 98.61621094 C209.16252233 100.84242713 210.81826912 103.07671261 212.46850586 105.31567383 C213.1478418 106.23606445 213.82717773 107.15645508 214.52709961 108.10473633 C216.22688079 110.4770928 217.85803883 112.88175533 219.46850586 115.31567383 C219.82976562 115.85385742 220.19102539 116.39204102 220.56323242 116.9465332 C230.43512485 131.75033592 237.93057856 147.79049896 244.46850586 164.31567383 C244.92253784 165.41528442 244.92253784 165.41528442 245.38574219 166.53710938 C251.02334175 180.30768317 254.52476606 194.58963879 257.28100586 209.19067383 C257.48781982 210.27018311 257.69463379 211.34969238 257.90771484 212.46191406 C260.38657488 226.22026511 260.63489927 239.97986338 260.59887695 253.91357422 C260.59350395 256.37904991 260.59886715 258.84434413 260.60522461 261.30981445 C260.61135306 273.56281668 260.33858059 285.77675769 258.21850586 297.87817383 C258.09064697 298.61865967 257.96278809 299.35914551 257.83105469 300.12207031 C255.04910862 315.64452298 251.12487305 330.59994842 245.46850586 345.31567383 C245.1760498 346.09765137 244.88359375 346.87962891 244.58227539 347.68530273 C238.6227908 363.59513905 231.06753376 378.3688143 222.46850586 393.00317383 C222.0947583 393.64552979 221.72101074 394.28788574 221.3359375 394.94970703 C220.43805598 396.44146622 219.46079782 397.88497702 218.46850586 399.31567383 C217.80850586 399.31567383 217.14850586 399.31567383 216.46850586 399.31567383 C216.12819336 400.32694336 216.12819336 400.32694336 215.78100586 401.35864258 C214.10481656 405.13505717 211.87746045 408.28660968 209.46850586 411.62817383 C209.01733398 412.27334961 208.56616211 412.91852539 208.10131836 413.58325195 C206.94429649 415.20068637 205.71184009 416.76360627 204.46850586 418.31567383 C203.80850586 418.31567383 203.14850586 418.31567383 202.46850586 418.31567383 C202.20424805 418.89833008 201.93999023 419.48098633 201.66772461 420.08129883 C200.42068089 422.40478094 199.04537435 424.11154488 197.28100586 426.06567383 C194.47626948 429.18870561 194.47626948 429.18870561 191.73413086 432.36645508 C188.28202341 436.44405906 184.67929141 440.04145887 180.60131836 443.49145508 C178.35150345 445.41574732 176.19825334 447.42403168 174.03100586 449.44067383 C162.09639836 460.15448942 149.17518472 469.10001813 135.36010742 477.1965332 C133.01230879 478.58557669 130.71343444 480.04832056 128.40600586 481.50317383 C121.39383534 485.68396966 113.91334888 488.9906916 106.46850586 492.31567383 C105.31995117 492.83129883 104.17139648 493.34692383 102.98803711 493.87817383 C86.31342674 500.93945877 68.28278069 506.10148547 50.46850586 509.31567383 C49.51051086 509.49281418 48.55251587 509.66995453 47.56549072 509.85246277 C39.06191305 511.30094277 30.75137915 511.62635674 22.14038086 511.61645508 C20.6975289 511.62035894 19.25467806 511.62469695 17.81182861 511.62944031 C14.80656184 511.63684048 11.80141266 511.63665754 8.79614258 511.63134766 C5.7513959 511.62671804 2.70704874 511.63363452 -0.33764648 511.65185547 C-32.20893618 511.84091211 -32.20893618 511.84091211 -46.53149414 508.31567383 C-48.40501251 507.92288935 -50.27869214 507.53087266 -52.15258789 507.13989258 C-53.75981077 506.76849728 -55.36533713 506.38967613 -56.96899414 506.00317383 C-57.84168945 505.79370117 -58.71438477 505.58422852 -59.61352539 505.3684082 C-68.43146671 503.18948212 -76.99103824 500.39318294 -85.53149414 497.31567383 C-86.69165039 496.90446289 -87.85180664 496.49325195 -89.04711914 496.06958008 C-97.18858774 493.07060916 -104.82174353 489.27640384 -112.53149414 485.31567383 C-114.59372149 484.31511167 -116.65620889 483.31508529 -118.71899414 482.31567383 C-123.68378055 479.83658607 -128.33485924 477.03021153 -132.97290039 473.98754883 C-135.35585934 472.43043977 -137.77582095 470.96306642 -140.21899414 469.50317383 C-141.85868164 468.42036133 -141.85868164 468.42036133 -143.53149414 467.31567383 C-143.53149414 466.65567383 -143.53149414 465.99567383 -143.53149414 465.31567383 C-144.52149414 465.31567383 -145.51149414 465.31567383 -146.53149414 465.31567383 C-146.53149414 464.65567383 -146.53149414 463.99567383 -146.53149414 463.31567383 C-147.29461914 463.02692383 -148.05774414 462.73817383 -148.84399414 462.44067383 C-151.53149414 461.31567383 -151.53149414 461.31567383 -154.53149414 459.31567383 C-154.53149414 458.65567383 -154.53149414 457.99567383 -154.53149414 457.31567383 C-155.09739258 457.05657227 -155.66329102 456.7974707 -156.24633789 456.53051758 C-172.21665779 448.04031333 -186.79053432 430.6039248 -197.53149414 416.31567383 C-198.54924914 414.99109061 -199.56752033 413.66690392 -200.58618164 412.34301758 C-201.67347573 410.91827058 -202.75941774 409.49249072 -203.84399414 408.06567383 C-204.60087524 407.07241089 -204.60087524 407.07241089 -205.37304688 406.05908203 C-208.4488804 401.95608376 -211.04080856 397.79680158 -213.53149414 393.31567383 C-214.60433785 391.66298364 -215.68730117 390.01680747 -216.78149414 388.37817383 C-221.30326126 381.32382899 -224.91815255 373.86212176 -228.53149414 366.31567383 C-228.99555664 365.35661133 -229.45961914 364.39754883 -229.93774414 363.40942383 C-233.62244262 355.56762963 -236.65008534 347.47966543 -239.53149414 339.31567383 C-239.91289551 338.2408374 -239.91289551 338.2408374 -240.30200195 337.14428711 C-243.71860104 327.36552035 -246.28829221 317.5312713 -248.34399414 307.37817383 C-248.55096924 306.36053955 -248.75794434 305.34290527 -248.97119141 304.29443359 C-251.11134833 293.198959 -251.68771716 282.17757037 -251.69946289 270.89379883 C-251.70279129 269.75013855 -251.70611969 268.60647827 -251.70954895 267.42816162 C-251.71457689 265.02478432 -251.71695857 262.62140013 -251.71679688 260.21801758 C-251.71898011 256.58899138 -251.73717188 252.96027134 -251.75610352 249.33129883 C-251.78612981 237.15456537 -251.55869791 225.3386553 -249.53149414 213.31567383 C-249.38010986 212.3451709 -249.22872559 211.37466797 -249.07275391 210.37475586 C-248.6594222 207.8252981 -248.20409955 205.28987087 -247.71899414 202.75317383 C-247.46569336 201.42576172 -247.46569336 201.42576172 -247.20727539 200.0715332 C-245.87535091 193.40708499 -244.03874626 187.12924433 -241.74633789 180.72583008 C-240.57117018 177.4270474 -239.56916526 174.11569332 -238.59399414 170.75317383 C-233.91999962 155.48355028 -226.54801996 140.34802763 -218.05102539 126.81958008 C-216.71492612 124.61793577 -215.50124188 122.3932118 -214.28540039 120.12426758 C-211.47558291 115.04105707 -208.14290813 110.45162127 -204.65649414 105.81567383 C-204.0699707 105.02547852 -203.48344727 104.2352832 -202.87915039 103.42114258 C-201.10851596 101.04343349 -199.32138381 98.67891028 -197.53149414 96.31567383 C-196.89308594 95.45844727 -196.25467773 94.6012207 -195.59692383 93.71801758 C-194.97462891 92.89430664 -194.35233398 92.0705957 -193.71118164 91.22192383 C-193.14898926 90.47233398 -192.58679688 89.72274414 -192.00756836 88.95043945 C-191.52046387 88.4109668 -191.03335938 87.87149414 -190.53149414 87.31567383 C-189.87149414 87.31567383 -189.21149414 87.31567383 -188.53149414 87.31567383 C-188.27368164 86.74333008 -188.01586914 86.17098633 -187.75024414 85.58129883 C-186.41783472 83.10438388 -184.88093296 81.18155722 -183.03149414 79.06567383 C-182.42305664 78.35926758 -181.81461914 77.65286133 -181.18774414 76.92504883 C-179.53149414 75.31567383 -179.53149414 75.31567383 -177.53149414 75.31567383 C-177.53149414 74.65567383 -177.53149414 73.99567383 -177.53149414 73.31567383 C-176.13305664 71.90551758 -176.13305664 71.90551758 -174.15649414 70.25317383 C-170.94052087 67.52892231 -167.81334915 64.73983334 -164.71899414 61.87817383 C-150.79663589 49.31567383 -150.79663589 49.31567383 -146.53149414 49.31567383 C-146.20149414 48.32567383 -145.87149414 47.33567383 -145.53149414 46.31567383 C-142.90649414 44.48364258 -142.90649414 44.48364258 -139.53149414 42.50317383 C-135.72483457 40.24929829 -131.99107466 37.97590627 -128.40649414 35.37817383 C-121.71943786 30.83296798 -114.1228609 27.75217037 -106.80053711 24.38134766 C-104.63933905 23.36632403 -102.50783652 22.30708782 -100.37915039 21.22583008 C-81.19700624 11.55728569 -59.61356137 5.88313808 -38.53149414 2.31567383 C-37.5857251 2.14285889 -36.63995605 1.97004395 -35.66552734 1.79199219 C-23.8174444 -0.10434477 -11.97167847 -0.02168637 0 0 Z " fill="#242424" transform="translate(251.531494140625,0.684326171875)"/>
<path d="M0 0 C4.59568671 2.48442038 8.43940526 5.13462204 10.140625 10.23828125 C10.37890625 12.47265625 10.37890625 12.47265625 10.453125 14.98828125 C10.49050781 15.808125 10.52789062 16.62796875 10.56640625 17.47265625 C9.54966625 24.07680232 4.97894625 28.83905129 0.39404297 33.35717773 C-0.16903564 33.92390701 -0.73211426 34.49063629 -1.31225586 35.07453918 C-3.15660893 36.9269329 -5.01150066 38.76834091 -6.8671875 40.609375 C-8.15756493 41.89923337 -9.44742329 43.1896112 -10.73678589 44.48048401 C-13.4303449 47.17395361 -16.12896994 49.86220654 -18.83154297 52.54663086 C-22.30156709 55.99386621 -25.76029823 59.45217669 -29.21557808 62.91418362 C-31.87281344 65.57475177 -34.53499425 68.23032442 -37.19881821 70.88429451 C-38.47684084 72.15846063 -39.75350892 73.43398687 -41.02881241 74.71087456 C-42.80485613 76.48728729 -44.58722633 78.2570884 -46.37158203 80.02514648 C-46.90045013 80.556492 -47.42931824 81.08783752 -47.97421265 81.63528442 C-51.63062292 85.23828125 -51.63062292 85.23828125 -53.859375 85.23828125 C-54.11074219 85.82738281 -54.36210937 86.41648437 -54.62109375 87.0234375 C-56.01392901 89.51472327 -57.4802322 90.86128539 -59.671875 92.67578125 C-62.9157048 95.38001847 -65.88292337 98.24125784 -68.859375 101.23828125 C-69.84782931 102.22945586 -70.83653359 103.22038123 -71.82545471 104.21109009 C-72.93256332 105.32121074 -74.03965355 106.43134971 -75.14672852 107.54150391 C-81.33075766 113.74184989 -87.51731456 119.93966733 -93.70532322 126.13604164 C-97.44346325 129.87941546 -101.18065613 133.62372517 -104.91577148 137.37011719 C-108.5373552 141.00256101 -112.16137207 144.6325608 -115.78709221 148.2608757 C-117.16626078 149.64189031 -118.54454966 151.02378402 -119.92193794 152.40657425 C-121.84610965 154.33799958 -123.77338273 156.26627818 -125.70141602 158.19384766 C-126.26827621 158.76430313 -126.83513641 159.33475861 -127.41917419 159.92250061 C-133.23738909 165.72557806 -137.91425807 169.05898407 -146.3203125 169.3125 C-157.38391858 168.71676737 -163.99158327 161.53624612 -171.43359375 153.95703125 C-172.32045364 153.06592651 -173.20731354 152.17482178 -174.12104797 151.25671387 C-176.46064096 148.90324832 -178.79352131 146.54352276 -181.12329102 144.18035889 C-183.48883694 141.78408237 -185.86291422 139.39629186 -188.23632812 137.0078125 C-191.71352776 133.50617777 -195.18678566 130.00073962 -198.6550293 126.49023438 C-201.71258296 123.39549646 -204.77790952 120.30920313 -207.859375 117.23828125 C-211.20436841 118.69311989 -213.39218846 120.52578088 -215.95800781 123.10313416 C-216.76548462 123.90930679 -217.57296143 124.71547943 -218.40490723 125.54608154 C-219.28191284 126.43184875 -220.15891846 127.31761597 -221.0625 128.23022461 C-221.99300171 129.16204056 -222.92350342 130.09385651 -223.88220215 131.0539093 C-225.90401845 133.07865641 -227.92264033 135.10651696 -229.93884277 137.13685417 C-233.12767186 140.34796776 -236.32359078 143.55196155 -239.52050781 146.75502014 C-244.57681495 151.82270534 -249.62842729 156.89504085 -254.67801285 161.96942288 C-263.71939086 171.05512503 -272.76633535 180.13527606 -281.81853867 189.21019274 C-284.99462065 192.39467596 -288.16787157 195.581946 -291.33886719 198.77149379 C-292.83717901 200.27789338 -294.33661617 201.78316204 -295.83654785 203.28794861 C-297.66425683 205.12168097 -299.4901381 206.95723758 -301.31384277 208.79495239 C-302.12131958 209.60394485 -302.92879639 210.41293732 -303.76074219 211.2464447 C-304.45979675 211.9490187 -305.15885132 212.65159269 -305.87908936 213.37545681 C-310.27941861 217.51477929 -312.62554769 218.66919499 -318.796875 218.67578125 C-320.00214844 218.69511719 -321.20742188 218.71445312 -322.44921875 218.734375 C-326.45202134 218.1520658 -328.01091436 217.05138865 -330.859375 214.23828125 C-334.61402942 208.96146963 -335.57609 205.68871622 -334.859375 199.23828125 C-333.00527179 194.88013685 -330.82845521 191.83013194 -327.49703979 188.48826599 C-326.60560776 187.58692932 -325.71417572 186.68559265 -324.79573059 185.75694275 C-323.81042669 184.77587633 -322.82496297 183.7949704 -321.83935547 182.81420898 C-320.79872729 181.76787361 -319.75872988 180.7209106 -318.71931458 179.67337036 C-315.90168823 176.83783219 -313.07461087 174.01190044 -310.24516439 171.18816257 C-307.87925496 168.82534907 -305.51795901 166.45795177 -303.15661633 164.09057575 C-297.58193755 158.50185865 -291.99950412 152.92097273 -286.41210938 147.3449707 C-280.66039538 141.60472607 -274.92155574 135.85184078 -269.18900192 130.09246677 C-264.25683665 125.13809735 -259.31689549 120.19157692 -254.37068665 115.25122792 C-251.42111154 112.30501365 -248.47446553 109.35601991 -245.53521347 106.39950371 C-242.76821042 103.61695937 -239.99155514 100.84441128 -237.20741844 98.07901382 C-236.19180453 97.06706655 -235.17952722 96.05175678 -234.1710186 95.0327282 C-227.81768865 88.61825193 -221.58430968 82.3543809 -212.453125 80.57421875 C-211.4321875 80.58710938 -210.41125 80.6 -209.359375 80.61328125 C-208.3384375 80.60039062 -207.3175 80.5875 -206.265625 80.57421875 C-197.00023196 82.38054537 -190.85871067 88.72332204 -184.51105309 95.31650925 C-183.02810998 96.85586209 -181.53198895 98.38128637 -180.03193665 99.90396118 C-176.31734485 103.67953328 -172.62358058 107.47522578 -168.93328857 111.27453613 C-165.79638972 114.50341398 -162.64994438 117.72231739 -159.48880959 120.92747879 C-158.01406142 122.43090172 -156.5546751 123.94822722 -155.09513855 125.46640015 C-154.20353531 126.37129181 -153.31193207 127.27618347 -152.39331055 128.20849609 C-151.22157539 129.41498306 -151.22157539 129.41498306 -150.02616882 130.64584351 C-148.0647419 132.43822733 -148.0647419 132.43822733 -146.05757427 132.15014648 C-142.91631877 130.84707914 -140.86018202 128.63154469 -138.52139282 126.24087524 C-137.99543026 125.71535926 -137.4694677 125.18984328 -136.92756689 124.64840257 C-135.16406671 122.88281627 -133.41152584 121.10673717 -131.65869141 119.33056641 C-130.39758382 118.06370223 -129.13579215 116.79751871 -127.87336731 115.53196716 C-125.15444902 112.80355816 -122.4402637 110.07055531 -119.7295723 107.33397293 C-115.44277038 103.00664709 -111.14458831 98.69074792 -106.84457397 94.3765564 C-96.93958062 84.43540263 -87.04962456 74.47933212 -77.15979767 64.52309418 C-68.10152362 55.40428501 -59.0401124 46.28865387 -49.96647584 37.18512762 C-45.69293152 32.89663718 -41.42681007 28.60093687 -37.16621804 24.29957986 C-34.51240488 21.62337452 -31.85237847 18.95341166 -29.19063377 16.28509712 C-27.95848764 15.04733865 -26.72893585 13.8069913 -25.50220299 12.56386757 C-23.82546534 10.8654388 -22.13964924 9.17655427 -20.45132446 7.48965454 C-19.96959766 6.99714285 -19.48787086 6.50463117 -18.99154627 5.99719489 C-13.74412422 0.79692542 -7.44745103 -3.05095158 0 0 Z " fill="#FCFCFC" transform="translate(402.859375,91.76171875)"/>
<path d="M0 0 C4.69772307 1.71647574 7.75992528 4.20448389 11 8 C12.342591 11.65252308 12.13167609 15.37727398 12.14044189 19.22944641 C12.14341302 19.95888102 12.14638414 20.68831563 12.1494453 21.43985432 C12.15811894 23.88480058 12.15963941 26.32969779 12.16113281 28.7746582 C12.16576191 30.52741602 12.17078669 32.28017283 12.17617798 34.03292847 C12.18929462 38.79540604 12.19574543 43.55786952 12.20018864 48.32036233 C12.20312037 51.29608299 12.20722536 54.27179981 12.21169281 57.24751854 C12.22536541 66.55882859 12.2350334 75.87012984 12.2388947 85.18144923 C12.24337589 95.92834085 12.26092762 106.67510531 12.2898953 117.42195827 C12.31151261 125.73036246 12.321599 134.03873088 12.32293582 142.3471629 C12.32398375 147.30885182 12.32988919 152.27042116 12.34775543 157.23208046 C12.36423707 161.899971 12.36639115 166.56765209 12.35761642 171.23556137 C12.35684612 172.9467786 12.36118793 174.6580071 12.37107468 176.36919594 C12.38380151 178.70958008 12.37791384 181.04922319 12.36749268 183.38960266 C12.36895924 184.69796239 12.3704258 186.00632212 12.3719368 187.35432911 C11.83397033 192.6273989 10.49935342 196.5775365 6.5625 200.3125 C5.716875 200.869375 4.87125 201.42625 4 202 C3.071875 202.61875 3.071875 202.61875 2.125 203.25 C-2.18088796 204.76972516 -5.88267631 204.40223653 -10.125 202.875 C-14.06292318 200.30678923 -16.87112583 197.25774835 -19 193 C-19.10398769 190.60810507 -19.14779922 188.24491929 -19.14717102 185.85247803 C-19.15084771 185.10771249 -19.1545244 184.36294695 -19.1583125 183.59561276 C-19.16937193 181.08684695 -19.173197 178.57812251 -19.17700195 176.06933594 C-19.18326491 174.27584196 -19.18991156 172.48234928 -19.19691467 170.68885803 C-19.21434027 165.80650243 -19.22488074 160.92415662 -19.2331202 156.04177761 C-19.23826719 152.99270647 -19.24434306 149.94363838 -19.25063133 146.8945694 C-19.26968799 137.35846988 -19.28391796 127.82237813 -19.2922433 118.28626323 C-19.30201767 107.27159386 -19.32834044 96.25712535 -19.36874419 85.24252677 C-19.39888691 76.73375646 -19.41371044 68.22504377 -19.41702431 59.71622109 C-19.41937696 54.63209141 -19.42836522 49.54817619 -19.45348549 44.4641037 C-19.47673886 39.68047221 -19.48101046 34.8971968 -19.47072411 30.11352348 C-19.47022796 28.35834253 -19.47657147 26.60314422 -19.49028015 24.84801674 C-19.50796071 22.4500692 -19.50091271 20.05340483 -19.48774719 17.65545654 C-19.49871644 16.96225429 -19.50968568 16.26905204 -19.52098733 15.55484366 C-19.45540418 10.60089346 -18.0671493 7.83123289 -15 4 C-10.21305699 -0.23032173 -6.14359086 -0.90606916 0 0 Z " fill="#FDFDFD" transform="translate(370,201)"/>
<path d="M0 0 C3.4375 1.75 3.4375 1.75 6 4 C6.763125 4.66 7.52625 5.32 8.3125 6 C11.10618379 9.31103265 11.12574084 12.61190477 11.14717102 16.83099365 C11.15432632 17.8009729 11.16148163 18.77095215 11.16885376 19.77032471 C11.17154266 20.82806091 11.17423157 21.88579712 11.17700195 22.97558594 C11.18685875 24.65430786 11.18685875 24.65430786 11.19691467 26.36694336 C11.21663487 30.07275459 11.22830708 33.77852533 11.23828125 37.484375 C11.24235678 38.75049873 11.2464323 40.01662247 11.25063133 41.32111359 C11.26933657 47.3311008 11.28390397 53.34106353 11.2922433 59.35107207 C11.30200999 66.27423835 11.32831955 73.19708442 11.36874419 80.12013793 C11.40261353 86.12798378 11.414394 92.13567488 11.41844749 98.14362335 C11.4233167 100.69366885 11.43494009 103.24371084 11.45348549 105.79369354 C11.47784569 109.36499994 11.47691708 112.9354718 11.4699707 116.50683594 C11.48278076 117.55647522 11.49559082 118.6061145 11.50878906 119.68756104 C11.45803928 126.85921602 10.40451097 132.56687969 5.140625 137.875 C0.42885167 140.67869983 -3.51437097 142.30762087 -9 141 C-14.18368354 138.85274423 -17.38293973 136.17705481 -20.14042664 131.2042408 C-21.86370428 126.78516613 -21.55304864 122.15061384 -21.51757812 117.46850586 C-21.5245874 116.3262001 -21.53159668 115.18389435 -21.53881836 114.00697327 C-21.55637944 110.2426806 -21.54478218 106.47914366 -21.53125 102.71484375 C-21.53394525 100.09363155 -21.53782794 97.47242033 -21.54284668 94.85121155 C-21.55010993 89.36288303 -21.54056933 83.87477031 -21.52148438 78.38647461 C-21.49970702 72.05095295 -21.50677808 65.71594608 -21.52879 59.38043684 C-21.54916057 53.27161226 -21.54696507 47.16301505 -21.53526306 41.05417061 C-21.53259558 38.46062714 -21.53586624 35.86707052 -21.54518127 33.2735424 C-21.55534264 29.64937423 -21.53985002 26.02619421 -21.51757812 22.40209961 C-21.52567505 21.33128143 -21.53377197 20.26046326 -21.54211426 19.15719604 C-21.45463792 11.47150146 -19.57278317 7.88653721 -14.4375 2.125 C-10.19145797 -1.21349106 -5.11106924 -0.83026311 0 0 Z " fill="#FBFBFB" transform="translate(183,264)"/>
<path d="M0 0 C4.20261675 1.69893018 6.41945133 4.3135019 9 8 C9.97006393 10.9101918 10.12996272 12.77186724 10.14044189 15.80012512 C10.14900711 17.28260994 10.14900711 17.28260994 10.15774536 18.79504395 C10.15886322 19.87821899 10.15998108 20.96139404 10.16113281 22.07739258 C10.16609772 23.21911423 10.17106262 24.36083588 10.17617798 25.53715515 C10.19081089 29.32295326 10.19760347 33.10870948 10.203125 36.89453125 C10.20887547 39.52145896 10.21463321 42.14838665 10.22039795 44.77531433 C10.22996859 49.5826227 10.23586583 54.38992202 10.2388947 59.19723874 C10.24337377 66.26696619 10.26091571 73.33650014 10.2898953 80.40616876 C10.31414055 86.53414898 10.32184019 92.66204947 10.32357025 98.7900753 C10.32659909 101.3947931 10.33463535 103.99951003 10.34775543 106.60419655 C10.36479839 110.24775498 10.36293963 113.89084177 10.35644531 117.53442383 C10.3656601 118.61152618 10.37487488 119.68862854 10.3843689 120.79837036 C10.353758 126.27719441 10.15871094 130.30276726 7 135 C3.09801571 138.60183166 -0.01767068 140.77558536 -5.3125 141.375 C-10.52310599 140.84510786 -13.7554159 138.85758684 -17.8125 135.5 C-20.49979484 132.10552231 -21.25091717 129.30573078 -21.26742554 125.00369263 C-21.27595551 123.99716644 -21.28448547 122.99064026 -21.29327393 121.95361328 C-21.29236755 120.85533203 -21.29146118 119.75705078 -21.29052734 118.62548828 C-21.29724457 117.46411346 -21.30396179 116.30273865 -21.31088257 115.10617065 C-21.32990535 111.26084127 -21.33378892 107.41568603 -21.3359375 103.5703125 C-21.34073872 101.57477905 -21.3455433 99.57924556 -21.35085833 97.58371341 C-21.36713591 91.30856297 -21.37202787 85.03346991 -21.37060547 78.75830078 C-21.36940423 72.29166141 -21.39050362 65.8253559 -21.4220928 59.35880101 C-21.4482716 53.8011195 -21.4589721 48.24354692 -21.45769465 42.68580425 C-21.45718547 39.36894271 -21.46469002 36.05244434 -21.48405075 32.73563004 C-21.50363168 29.03457129 -21.49790275 25.33437319 -21.48583984 21.63330078 C-21.49707886 20.53906799 -21.50831787 19.44483521 -21.51989746 18.31744385 C-21.46929168 12.21164057 -21.08368323 8.64273279 -17 4 C-11.85338581 -0.77003266 -6.68088166 -0.83766406 0 0 Z " fill="#FDFDFD" transform="translate(309,264)"/>
<path d="M0 0 C5.30999854 2.49045158 8.1194355 5.57414506 10.36575699 11.00042725 C11.44071991 14.38945406 11.41704237 17.78634229 11.38818359 21.30273438 C11.39344055 22.10205887 11.39869751 22.90138336 11.40411377 23.72492981 C11.41723932 26.34807294 11.40860235 28.97060148 11.3984375 31.59375 C11.40046038 33.42785762 11.4033736 35.26196446 11.40713501 37.09606934 C11.41154828 40.93245126 11.40515949 44.76862305 11.39111328 48.60498047 C11.374022 53.51088947 11.38386854 58.41630601 11.40183067 63.32219696 C11.41269549 67.10727619 11.4092098 70.89223958 11.4014473 74.67732239 C11.39945275 76.4857438 11.40187826 78.2941759 11.40888596 80.10258484 C11.416545 82.63442663 11.4048345 85.16548207 11.38818359 87.69726562 C11.39729263 88.8071862 11.39729263 88.8071862 11.40658569 89.93952942 C11.33868701 95.54096909 10.25706259 100.36976973 6.53515625 104.70703125 C1.1056472 108.78276351 -2.02558634 110.81368159 -9 110 C-14.96265673 107.50348578 -18.46712212 104.0019733 -21 98 C-21.53528928 95.08677175 -21.53832518 92.25435418 -21.50170898 89.29833984 C-21.50711197 88.45678848 -21.51251495 87.61523712 -21.51808167 86.7481842 C-21.53051989 83.9854034 -21.5141138 81.22367454 -21.49609375 78.4609375 C-21.49624882 76.53235825 -21.49773918 74.60377869 -21.50050354 72.67520142 C-21.50188523 68.64205068 -21.48936559 64.60925656 -21.46655273 60.57617188 C-21.43813069 55.40998106 -21.44091888 50.24438076 -21.45364285 45.07814598 C-21.46060041 41.09926315 -21.45281047 37.12051658 -21.44038582 33.14165115 C-21.43587477 31.23668566 -21.43553149 29.33170554 -21.43945122 27.42673874 C-21.44236516 24.76514469 -21.42584923 22.10436248 -21.40405273 19.44287109 C-21.40855438 18.65833054 -21.41305603 17.87378998 -21.41769409 17.06547546 C-21.34411943 11.65180888 -20.28100791 8.29842019 -16.46484375 4.453125 C-10.86872141 0.04492633 -7.11677383 -1.08050289 0 0 Z " fill="#FBFBFB" transform="translate(246,295)"/>
<path d="M0 0 C3.47744086 2.83047512 5.27145663 4.93936988 6.6875 9.1875 C6.79028031 10.95005281 6.83597428 12.71618784 6.84863281 14.48168945 C6.85824036 15.56323807 6.8678479 16.64478668 6.87774658 17.7591095 C6.88199646 18.92786118 6.88624634 20.09661285 6.890625 21.30078125 C6.89632507 22.50308884 6.90202515 23.70539642 6.90789795 24.94413757 C6.91735075 27.49033731 6.92388304 30.0365493 6.92773438 32.58276367 C6.93743522 36.47401333 6.968455 40.36473382 7 44.25585938 C7.00653055 46.72916353 7.01178081 49.20247146 7.015625 51.67578125 C7.0279718 52.83846024 7.0403186 54.00113922 7.05303955 55.1990509 C7.02507985 65.36338886 7.02507985 65.36338886 3.6875 70.1875 C-0.24302413 73.81567612 -3.33565696 76.00445898 -8.6875 76.5 C-15.21446331 75.93733075 -19.06420763 73.04269128 -23.3125 68.1875 C-24.3480798 65.08076059 -24.45759512 62.87726363 -24.48950195 59.61791992 C-24.50233719 58.47630905 -24.51517242 57.33469818 -24.52839661 56.15849304 C-24.53578354 54.92412003 -24.54317047 53.68974701 -24.55078125 52.41796875 C-24.558853 51.14907303 -24.56692474 49.88017731 -24.57524109 48.5728302 C-24.58908158 45.88534901 -24.60009815 43.19799047 -24.60766602 40.51049805 C-24.61872236 37.0772506 -24.65311869 33.64465274 -24.69283772 30.21163464 C-24.72535373 26.92631074 -24.72978678 23.64092902 -24.73828125 20.35546875 C-24.75578934 19.12716843 -24.77329742 17.8988681 -24.79133606 16.63334656 C-24.76424681 5.97505437 -24.76424681 5.97505437 -20.3125 1.1875 C-13.73819138 -3.57887375 -7.13446265 -3.90376258 0 0 Z " fill="#FDFDFD" transform="translate(124.3125,328.8125)"/>
<path d="M0 0 C0.66 0.33 1.32 0.66 2 1 C-0.31 3.31 -2.62 5.62 -5 8 C-5.33 7.34 -5.66 6.68 -6 6 C-2.25 1.125 -2.25 1.125 0 0 Z " fill="#DDDDDD" transform="translate(358,203)"/>
<path d="M0 0 C0.66 0.33 1.32 0.66 2 1 C-0.31 3.31 -2.62 5.62 -5 8 C-5 5 -5 5 -2.5 2.3125 C-1.675 1.549375 -0.85 0.78625 0 0 Z " fill="#DDDDDD" transform="translate(107,328)"/>
</svg>
